<?xml version="1.0" encoding="utf-8"?>
<!-- Generator: Adobe Illustrator 24.0.1, SVG Export Plug-In . SVG Version: 6.00 Build 0)  -->
<svg version="1.1" id="Layer_1" xmlns="http://www.w3.org/2000/svg" xmlns:xlink="http://www.w3.org/1999/xlink" x="0px" y="0px"
	 viewBox="0 0 107 87" style="enable-background:new 0 0 107 87;" xml:space="preserve">
<style type="text/css">
	.st0{fill:#FFFFFF;}
	.st1{fill:#FF3811;}
</style>
<path class="st0" d="M104,36.7c-0.5-1.6-1-3-1.4-4.4c-0.3-0.9-0.8-1.1-1.6-1.1c-2.8,0.1-5.6,0-8.3,0.3c-2.7,0.3-4.6-0.5-5.8-2.9
	c-0.4-0.7-1-1.4-1.5-2c-0.7-0.9-0.9-1.7-0.5-2.8c1.2-3.1,2.3-6.2,3.5-9.3c0.4-1,0.2-1.6-0.7-2.2c-1.7-1.1-3.2-2.3-4.8-3.4
	c-2.3-1.5-1.6-1.7-3.9,0c-2.5,1.8-5,3.7-7.4,5.6c-0.8,0.6-1.6,0.7-2.5,0.4c-1.5-0.6-3-1.1-4.5-1.5c-1.3-0.3-1.9-1.1-2.3-2.3
	c-0.9-3.1-1.9-6.3-2.8-9.4c-0.3-0.9-0.7-1.3-1.6-1.4c-2.3,0-4.6,0-6.9-0.1c-1.3-0.1-2,0.4-2.3,1.7c-0.8,3.1-1.9,6.1-2.7,9.1
	c-0.3,1.2-0.9,1.9-2.2,2.2c-1.6,0.4-3.3,0.9-4.8,1.5c-1.1,0.4-1.9,0.2-2.7-0.4c-2.8-2.1-5.6-4.1-8.3-6.3c-0.7-0.6-1.3-0.6-2,0
	c-2,1.4-4,2.8-6,4.2c-0.8,0.6-0.9,1.1-0.5,2c1.2,3.2,2.4,6.5,3.5,9.7c0.2,0.6,0,1.5-0.3,2c-1,1.6-2.3,3-3.3,4.5
	c-0.6,0.9-1.4,1.3-2.5,1.2c-3.5-0.1-6.9-0.2-10.4-0.3c-0.5,0-1.2,0.2-1.4,0.6c-0.6,1.6-1.1,3.2-1.7,5c0.8,0,1.3,0,1.8,0
	c5.2,0,10.4-0.1,15.5,0.1c2,0.1,3.4-0.3,4.1-2.4c0.2-0.6,0.7-1.2,1.1-1.8c8.5-13.1,26-18.3,40.4-12.3c7.5,3.1,13.1,8.2,17,15.3
	c0.2,0.4,0.8,1,1.3,1C90.7,36.8,97.2,36.7,104,36.7z"/>
<path class="st1" d="M104,36.7c-6.8,0-13.3,0-19.9-0.1c-0.4,0-1-0.5-1.3-1c-3.9-7.1-9.5-12.2-17-15.3c-14.4-6-31.8-0.8-40.4,12.3
	c-0.4,0.6-0.9,1.1-1.1,1.8c-0.7,2-2,2.4-4.1,2.4c-5.2-0.2-10.3-0.1-15.5-0.1c-0.5,0-1,0-1.8,0c0.6-1.8,1.1-3.4,1.7-5
	c0.1-0.3,0.9-0.6,1.4-0.6c3.5,0,7,0.1,10.4,0.3c1.1,0.1,1.8-0.3,2.5-1.2c1.1-1.5,2.3-3,3.3-4.5c0.3-0.5,0.5-1.4,0.3-2
	c-1.1-3.3-2.3-6.5-3.5-9.7c-0.3-0.9-0.3-1.5,0.5-2c2-1.3,4-2.8,6-4.2c0.7-0.5,1.3-0.5,2,0c2.7,2.1,5.6,4.2,8.3,6.3
	c0.8,0.6,1.6,0.9,2.7,0.4c1.6-0.6,3.2-1.1,4.8-1.5c1.3-0.3,1.9-1,2.2-2.2c0.8-3.1,1.9-6.1,2.7-9.1c0.4-1.3,1.1-1.7,2.3-1.7
	c2.3,0.1,4.6,0.1,6.9,0.1c1,0,1.4,0.4,1.6,1.4c0.9,3.1,1.9,6.3,2.8,9.4c0.3,1.2,1,2,2.3,2.3c1.6,0.4,3,0.9,4.5,1.5
	c0.9,0.4,1.7,0.3,2.5-0.4c2.5-1.9,4.9-3.7,7.4-5.6c2.3-1.7,1.7-1.6,3.9,0c1.6,1.1,3.2,2.3,4.8,3.4c0.9,0.6,1.1,1.2,0.7,2.2
	c-1.2,3.1-2.3,6.2-3.5,9.3c-0.4,1.1-0.3,2,0.5,2.8c0.5,0.6,1.1,1.3,1.5,2c1.2,2.4,3.1,3.3,5.8,2.9c2.7-0.3,5.5-0.2,8.3-0.3
	c0.9,0,1.4,0.3,1.6,1.1C103,33.7,103.5,35.1,104,36.7z"/>
<path class="st0" d="M75.3,46.2c-3.3-3.3-6.7-6.6-10-9.9c-0.6-0.6-1-0.2-1.4,0.2c-1.6,1.6-3.2,3.2-4.8,4.7c-1,1-2.1,1.9-3.2,2.9
	c0.1,0.1,0.2,0.3,0.3,0.4c3.1-0.6,5.9,0,8.1,2.2c2.2,2.2,2.8,5,2.3,8C69.5,51.9,72.4,49.1,75.3,46.2z"/>
<path class="st0" d="M51,44.3c-0.4-0.5-0.6-0.8-0.9-1c-2.3-2.2-4.6-4.4-6.8-6.7c-0.8-0.8-1.3-0.8-2,0c-2.9,3-5.9,5.9-8.9,8.8
	c-0.8,0.7-0.6,1.2,0.1,1.8c2.4,2.3,4.7,4.7,7.1,7c0.2,0.2,0.5,0.3,0.8,0.5C39.4,48,44.2,43.4,51,44.3z"/>
<path class="st0" d="M40.1,33.4C36.5,37,33,40.5,29.6,44c0.3,0.3,0.6,0.8,0.9,1.2c3.6-3.6,7.1-7.1,10.9-10.7
	C40.9,34.1,40.5,33.7,40.1,33.4z"/>
<path class="st0" d="M80.1,41.6c-0.1-0.1-0.1-0.3-0.3-0.4c-3.2-3.2-6.3-6.3-9.5-9.5c-0.5-0.5-0.9-0.6-1.5,0c-0.6,0.6-0.5,1,0.1,1.6
	c2.8,2.8,5.6,5.6,8.5,8.4c0.5,0.4,0.9,0.9,1.6,1.5C79.3,42.6,79.6,42.2,80.1,41.6z"/>
<path class="st0" d="M77.8,43.8c-3.3-3.3-6.5-6.4-9.7-9.6c-0.5-0.5-1-1-1.7-0.2c-0.7,0.8-0.3,1.2,0.3,1.7c2.9,2.8,5.7,5.7,8.6,8.5
	C76.5,45.5,76.5,45.5,77.8,43.8z"/>
<path class="st0" d="M38.9,32.3c-1.3-1.5-1.2-1.5-2.6-0.2c-2.8,2.7-5.5,5.5-8.3,8.2c-1.3,1.3-1.3,1.5,0.3,2.4
	C31.8,39.2,35.3,35.8,38.9,32.3z"/>
<path class="st0" d="M75.3,46.2c-3,2.9-5.8,5.7-8.7,8.6c0.6-3,0-5.7-2.3-8c-2.3-2.2-5-2.9-8.1-2.2c-0.1-0.1-0.2-0.3-0.3-0.4
	c1.1-1,2.1-1.9,3.2-2.9c1.6-1.6,3.2-3.1,4.8-4.7c0.4-0.4,0.8-0.8,1.4-0.2C68.7,39.6,72,42.9,75.3,46.2z M67.6,41.7
	c-0.6,0.8-1.3,1.3-1.2,1.7c0.1,0.5,0.8,0.9,1.3,1.3c0.4-0.4,1.1-0.8,1.1-1.3C68.8,42.9,68.2,42.4,67.6,41.7z"/>
<path class="st0" d="M51,44.3c-6.9-1-11.6,3.6-10.6,10.4c-0.3-0.2-0.6-0.3-0.8-0.5c-2.4-2.3-4.7-4.7-7.1-7c-0.6-0.6-0.8-1.1-0.1-1.8
	c3-2.9,6-5.8,8.9-8.8c0.8-0.8,1.2-0.8,2,0c2.2,2.3,4.5,4.5,6.8,6.7C50.4,43.6,50.6,43.9,51,44.3z M41.2,43.5
	c-0.8-0.6-1.3-1.3-1.7-1.3c-0.5,0.1-0.9,0.8-1.4,1.2c0.4,0.4,0.8,1.1,1.3,1.2C39.8,44.6,40.3,44,41.2,43.5z"/>
<path class="st0" d="M40.1,33.4c0.4,0.4,0.9,0.7,1.3,1.1c-3.7,3.7-7.2,7.1-10.9,10.7c-0.3-0.4-0.7-0.9-0.9-1.2
	C33,40.5,36.5,37,40.1,33.4z"/>
<path class="st0" d="M80.1,41.6c-0.5,0.6-0.8,1-1.2,1.6c-0.6-0.6-1.1-1-1.6-1.5c-2.8-2.8-5.6-5.6-8.5-8.4c-0.6-0.6-0.7-1-0.1-1.6
	c0.6-0.6,1-0.5,1.5,0c3.2,3.2,6.3,6.3,9.5,9.5C79.9,41.2,80,41.4,80.1,41.6z"/>
<path class="st0" d="M77.8,43.8c-1.3,1.7-1.3,1.7-2.6,0.4c-2.8-2.8-5.7-5.7-8.6-8.5c-0.6-0.5-1-1-0.3-1.7c0.7-0.8,1.2-0.4,1.7,0.2
	C71.3,37.4,74.6,40.6,77.8,43.8z"/>
<path class="st0" d="M38.9,32.3c-3.6,3.5-7.1,6.9-10.6,10.4c-1.6-0.9-1.6-1.1-0.3-2.4c2.8-2.7,5.5-5.5,8.3-8.2
	C37.6,30.8,37.6,30.8,38.9,32.3z"/>
<path class="st0" d="M67.6,41.7c0.5,0.8,1.2,1.3,1.1,1.7c0,0.4-0.7,0.9-1.1,1.3c-0.5-0.4-1.2-0.8-1.3-1.3
	C66.3,43,67.1,42.4,67.6,41.7z"/>
<path class="st0" d="M41.2,43.5c-0.8,0.5-1.4,1.1-1.8,1.1c-0.5-0.1-0.8-0.8-1.3-1.2c0.5-0.4,0.9-1.1,1.4-1.2
	C39.9,42.1,40.4,42.8,41.2,43.5z"/>
<path class="st0" d="M8,68.8c-1.1,0-2,0.4-2.6,1.3c-0.6,0.9-0.9,2-0.9,3.6c0,3.2,1.2,4.8,3.6,4.8c1,0,2.2-0.3,3.6-0.8v2.5
	C10.5,80.7,9.1,81,7.7,81c-2.1,0-3.7-0.6-4.8-1.9c-1.1-1.3-1.7-3.1-1.7-5.4c0-1.5,0.3-2.8,0.8-3.9c0.5-1.1,1.3-2,2.3-2.6
	c1-0.6,2.2-0.9,3.6-0.9c1.4,0,2.8,0.3,4.2,1l-1,2.5c-0.5-0.3-1.1-0.5-1.6-0.7C9,68.9,8.5,68.8,8,68.8z M21.4,80.8l-0.6-1.5h-0.1
	c-0.5,0.6-1,1.1-1.6,1.3c-0.5,0.2-1.2,0.4-2.1,0.4c-1,0-1.9-0.3-2.5-0.9c-0.6-0.6-0.9-1.5-0.9-2.6c0-1.2,0.4-2,1.2-2.6
	c0.8-0.6,2-0.9,3.7-0.9l1.9-0.1v-0.5c0-1.1-0.6-1.7-1.7-1.7c-0.9,0-1.9,0.3-3.1,0.8l-1-2c1.3-0.7,2.6-1,4.2-1c1.5,0,2.6,0.3,3.4,1
	c0.8,0.6,1.2,1.6,1.2,2.9v7.3H21.4z M20.5,75.7l-1.2,0c-0.9,0-1.5,0.2-1.9,0.5c-0.4,0.3-0.6,0.7-0.6,1.3c0,0.8,0.5,1.3,1.4,1.3
	c0.7,0,1.2-0.2,1.7-0.6c0.4-0.4,0.6-0.9,0.6-1.6V75.7z M32.6,69.7c0.4,0,0.7,0,1,0.1l-0.2,2.8c-0.2-0.1-0.5-0.1-0.9-0.1
	c-1,0-1.7,0.2-2.2,0.7c-0.5,0.5-0.8,1.2-0.8,2.1v5.6h-3V69.9h2.3l0.4,1.8h0.1c0.3-0.6,0.8-1.1,1.4-1.5
	C31.3,69.8,31.9,69.7,32.6,69.7z M52.9,73.5c0,2.4-0.7,4.2-2,5.4c-1.3,1.3-3.3,1.9-5.8,1.9h-4V66.5h4.5c2.3,0,4.1,0.6,5.4,1.8
	C52.2,69.6,52.9,71.3,52.9,73.5z M49.7,73.6c0-3.1-1.4-4.6-4.1-4.6h-1.6v9.3h1.3C48.3,78.3,49.7,76.7,49.7,73.6z M58,75.3
	c0,1.1,0.2,1.9,0.5,2.5c0.4,0.6,0.9,0.8,1.7,0.8c0.8,0,1.4-0.3,1.7-0.8c0.4-0.6,0.5-1.4,0.5-2.5c0-1.1-0.2-1.9-0.5-2.4
	c-0.4-0.5-0.9-0.8-1.7-0.8c-0.8,0-1.4,0.3-1.7,0.8C58.2,73.4,58,74.2,58,75.3z M65.5,75.3c0,1.8-0.5,3.2-1.4,4.2
	c-0.9,1-2.2,1.5-3.9,1.5c-1,0-2-0.2-2.8-0.7c-0.8-0.5-1.4-1.1-1.8-2c-0.4-0.9-0.6-1.9-0.6-3c0-1.8,0.5-3.2,1.4-4.2
	c0.9-1,2.2-1.5,3.9-1.5c1,0,2,0.2,2.8,0.7c0.8,0.5,1.4,1.1,1.8,2C65.3,73.2,65.5,74.2,65.5,75.3z M72.4,81c-3.4,0-5.1-1.9-5.1-5.6
	c0-1.9,0.5-3.3,1.4-4.2c0.9-1,2.2-1.5,4-1.5c1.3,0,2.4,0.2,3.4,0.7l-0.9,2.3c-0.5-0.2-0.9-0.3-1.3-0.5c-0.4-0.1-0.8-0.2-1.2-0.2
	c-1.5,0-2.3,1.1-2.3,3.3c0,2.1,0.8,3.2,2.3,3.2c0.6,0,1.1-0.1,1.6-0.2c0.5-0.2,1-0.4,1.5-0.7v2.5c-0.5,0.3-1,0.5-1.5,0.6
	C73.8,80.9,73.2,81,72.4,81z M82.9,78.6c0.5,0,1.1-0.1,1.9-0.3v2.2C84,80.8,83.1,81,82,81c-1.2,0-2.1-0.3-2.6-0.9
	c-0.5-0.6-0.8-1.5-0.8-2.7v-5.3h-1.4v-1.3l1.6-1l0.9-2.3h1.9v2.3h3.1v2.2h-3.1v5.3c0,0.4,0.1,0.7,0.4,0.9
	C82.2,78.5,82.5,78.6,82.9,78.6z M89.3,75.3c0,1.1,0.2,1.9,0.5,2.5c0.4,0.6,0.9,0.8,1.7,0.8c0.8,0,1.4-0.3,1.7-0.8
	c0.4-0.6,0.5-1.4,0.5-2.5c0-1.1-0.2-1.9-0.5-2.4c-0.4-0.5-0.9-0.8-1.7-0.8c-0.8,0-1.4,0.3-1.7,0.8C89.5,73.4,89.3,74.2,89.3,75.3z
	 M96.9,75.3c0,1.8-0.5,3.2-1.4,4.2c-0.9,1-2.2,1.5-3.9,1.5c-1,0-2-0.2-2.8-0.7c-0.8-0.5-1.4-1.1-1.8-2c-0.4-0.9-0.6-1.9-0.6-3
	c0-1.8,0.5-3.2,1.4-4.2c0.9-1,2.2-1.5,3.9-1.5c1,0,2,0.2,2.8,0.7c0.8,0.5,1.4,1.1,1.8,2C96.7,73.2,96.9,74.2,96.9,75.3z M105.5,69.7
	c0.4,0,0.7,0,1,0.1l-0.2,2.8c-0.2-0.1-0.5-0.1-0.9-0.1c-1,0-1.7,0.2-2.2,0.7c-0.5,0.5-0.8,1.2-0.8,2.1v5.6h-3V69.9h2.3l0.4,1.8h0.1
	c0.3-0.6,0.8-1.1,1.4-1.5C104.1,69.8,104.8,69.7,105.5,69.7z"/>
</svg>
